<?xml version="1.0" standalone="no"?>
<!DOCTYPE svg PUBLIC "-//W3C//DTD SVG 20010904//EN"
 "http://www.w3.org/TR/2001/REC-SVG-20010904/DTD/svg10.dtd">
<svg version="1.0" xmlns="http://www.w3.org/2000/svg"
 width="700.000000pt" height="700.000000pt" viewBox="0 0 700.000000 700.000000"
 preserveAspectRatio="xMidYMid meet">
<metadata>
Created by potrace 1.14, written by Peter Selinger 2001-2017
</metadata>
<g transform="translate(0.000000,700.000000) scale(0.100000,-0.100000)"
fill="#000000" stroke="none">
<path d="M734 6815 c-108 -23 -222 -81 -322 -163 -96 -79 -199 -255 -227 -389
-13 -64 -15 -404 -13 -2820 l3 -2748 27 -80 c40 -116 92 -199 183 -290 89 -90
185 -147 315 -187 l75 -23 2690 -3 c1786 -2 2718 1 2775 8 304 36 553 253 627
545 17 66 18 215 18 2810 l0 2740 -23 78 c-70 244 -241 425 -477 505 l-80 27
-2755 2 c-2262 1 -2766 -1 -2816 -12z m1556 -1220 l0 -895 -890 0 -890 0 0
740 c0 707 1 743 19 796 27 75 77 142 141 187 98 68 66 66 883 66 l737 1 0
-895z m2120 -5 l0 -900 -267 0 c-148 0 -548 3 -890 7 l-623 6 0 894 0 893 890
0 890 0 0 -900z m1912 868 c112 -52 195 -159 217 -282 7 -39 11 -301 11 -768
l0 -708 -900 0 -900 0 0 895 0 895 758 -2 757 -3 57 -27z m-4022 -2365 c0
-148 -3 -548 -7 -890 l-6 -623 -889 0 -888 0 0 890 0 890 895 0 895 0 0 -267z
m1442 257 l678 0 0 -312 c0 -172 -3 -573 -7 -890 l-6 -578 -889 0 -888 0 0
273 c0 149 3 553 7 896 l6 624 210 -6 c116 -4 515 -7 889 -7z m2808 -880 l0
-890 -900 0 -900 0 0 393 c0 217 3 617 7 890 l6 497 894 0 893 0 0 -890z
m-5007 -1230 l747 0 0 -233 c0 -129 -3 -531 -7 -895 l-6 -662 -712 0 c-771 0
-776 0 -870 56 -56 32 -117 99 -152 166 l-28 53 -3 764 -2 764 142 -6 c79 -4
479 -7 891 -7z m2114 -10 l753 0 0 -890 0 -890 -895 0 -895 0 0 708 c0 389 3
792 7 896 l6 189 135 -7 c74 -3 474 -6 889 -6z m2893 -708 c0 -766 -1 -775
-50 -871 -30 -60 -108 -131 -180 -165 l-65 -31 -752 -3 -753 -3 0 896 0 895
900 0 900 0 0 -718z"/>
</g>
</svg>
