<?xml version="1.0" standalone="no"?>
<!DOCTYPE svg PUBLIC "-//W3C//DTD SVG 20010904//EN"
 "http://www.w3.org/TR/2001/REC-SVG-20010904/DTD/svg10.dtd">
<svg version="1.0" xmlns="http://www.w3.org/2000/svg"
 width="700.000000pt" height="700.000000pt" viewBox="0 0 700.000000 700.000000"
 preserveAspectRatio="xMidYMid meet">
<metadata>
Created by potrace 1.14, written by Peter Selinger 2001-2017
</metadata>
<g transform="translate(0.000000,700.000000) scale(0.100000,-0.100000)"
fill="#000000" stroke="none">
<path d="M712 6810 c-261 -68 -456 -266 -522 -526 -20 -78 -20 -107 -18 -2839
l3 -2760 26 -72 c43 -117 96 -202 178 -284 120 -120 257 -187 423 -209 58 -8
885 -10 2783 -8 2568 3 2703 4 2760 21 259 78 450 271 522 527 17 62 18 184
18 2810 0 3093 8 2787 -79 2965 -94 191 -273 331 -483 379 -65 15 -320 16
-2805 15 -2655 0 -2735 -1 -2806 -19z m1578 -1215 l0 -895 -890 0 -891 0 3
753 3 752 28 60 c32 69 104 147 162 177 90 47 81 47 853 47 l732 1 0 -895z
m2120 -7 l0 -901 -512 6 c-281 4 -682 7 -890 7 l-378 0 0 895 0 895 890 0 890
0 0 -902z m1915 868 c76 -38 149 -110 183 -184 l27 -57 3 -757 2 -758 -895 0
-895 0 0 895 0 896 758 -3 757 -3 60 -29z m-4028 -2643 c-4 -302 -7 -702 -7
-890 l0 -343 -657 0 c-362 0 -763 3 -890 7 l-233 6 0 879 0 878 888 3 c488 1
891 3 896 5 6 1 7 -216 3 -545z m2120 533 c2 -2 1 -402 -3 -890 l-7 -886 -890
0 -890 0 6 503 c4 276 7 678 7 892 l0 390 887 -3 c488 -1 888 -4 890 -6z
m2133 -876 l0 -890 -900 0 -900 0 0 243 c0 134 3 535 7 890 l6 647 894 0 893
0 0 -890z m-4263 -1234 c2 -2 1 -405 -3 -895 l-7 -891 -703 0 c-476 0 -720 4
-756 11 -120 25 -225 108 -276 217 l-27 57 -3 755 -2 755 887 -3 c488 -1 888
-4 890 -6z m4261 -738 c-3 -737 -3 -743 -25 -796 -42 -102 -123 -183 -225
-225 -53 -22 -59 -22 -800 -25 l-748 -3 0 896 0 895 900 0 901 0 -3 -742z
m-2138 -158 l0 -890 -895 0 -895 0 0 543 c0 299 3 700 7 890 l6 347 889 0 888
0 0 -890z"/>
</g>
</svg>
